<svg xmlns="http://www.w3.org/2000/svg" width="13.001" height="13" viewBox="0 0 13.001 13">
  <path id="Subtraction_1" data-name="Subtraction 1" d="M-747.5-1049a6.507,6.507,0,0,1-6.5-6.5,6.507,6.507,0,0,1,6.5-6.5,6.508,6.508,0,0,1,6.5,6.5A6.508,6.508,0,0,1-747.5-1049Zm-.438-3.933v1.821h.878v-1.821l1.426,1.4.615-.614-2.04-2.04v-.878h.878l2.04,2.04.614-.615-1.4-1.426h1.821v-.877h-1.821l1.4-1.427-.614-.614-2.04,2.04h-.878v-.878l2.04-2.04-.615-.615-1.426,1.4v-1.821h-.878v1.821l-1.426-1.4-.615.615,2.04,2.04v.878h-.878l-2.04-2.04-.614.614,1.4,1.427h-1.822v.877h1.822l-1.4,1.426.614.615,2.04-2.04h.878v.878l-2.04,2.04.615.614,1.424-1.4Z" transform="translate(754 1062)" fill="#7db0c6"/>
</svg>
