<svg xmlns="http://www.w3.org/2000/svg" width="164" height="137.795" viewBox="0 0 164 137.795">
  <g id="Logo" transform="translate(0 0)">
    <path id="Path_1" data-name="Path 1" d="M74.816,22.674C68.036,37.439,64,50.369,72.575,57.406s32.719,9.113,30.48,1.165S81.767,51.239,83.123,44.051,104.708,8.323,94.731,3.964,81.6,7.91,74.816,22.674" transform="translate(-36.075 -1.494)" fill="#c6a37d"/>
    <path id="Path_2" data-name="Path 2" d="M135.758,10.026c-7.5,10.214-10.8,39.586-2.874,46.633s30.421,8.008,36.318-.553S146.544,55.148,143.845,49s-2.187-15.28,12.858-11.436,19.676-13.006,6.832-11.344-25.026,3.964-23.337-2.74,17.461,2.015,27.514-1.07-24.453-22.6-31.954-12.383" transform="translate(-68.367 -3.78)" fill="#a5ae9b"/>
    <path id="Path_3" data-name="Path 3" d="M235.392.559c-9-2.8-11.321,5.385-13.309,13.886s-12.115,49.543,8.84,45.641S244.394,3.354,235.392.559m-1.6,46.429c-7.6,4.025-10.882-29.971-3.257-32.042s10.852,28.017,3.257,32.042" transform="translate(-116.097 0)" fill="#c6a37d"/>
    <path id="Path_4" data-name="Path 4" d="M36.255,175.821c.223,3.689-4.007,2.114-13.023,5.589s-16.814,6.551-11.1,12.563,17.286,1.036,10.68,14.952-36.346-14.274-15.537-29.644,26.774-10.413,28.974-3.461" transform="translate(0 -90.138)" fill="#c6a37d"/>
    <path id="Path_5" data-name="Path 5" d="M81.5,191.641c-14.059-7.728-25.228,9.317-24.551,22.121s4.07,24.314,17.016,22.931,21.594-37.324,7.535-45.052m-5.964,32.325c-5.582,14.02-8.256-3.942-8.359-12.149s3.788-13.139,6.641-12.711,7.3,10.84,1.718,24.86" transform="translate(-30.327 -101.078)" fill="#a5ae9b"/>
    <path id="Path_6" data-name="Path 6" d="M127.991,210.6c.438,11.377-3.943,27.8,1.309,29.082s7.617-11.327,8.723-17.824,13.706-1.966,13.77-6.441-9.854-5.182-14.734-6.984,6.891-1.171,12.119-4.379-3.171-8.923-7.039-8.8-14.8-1.535-14.147,15.345" transform="translate(-67.504 -104.034)" fill="#b6bbab"/>
    <path id="Path_7" data-name="Path 7" d="M182.35,202.793c-.2,12.064-1.217,36.029,3.938,35.681s8.3-6.419,6.749-19.769,10.455-4.345,10.192-10.984-12.549-3.45-13.876-6.541,14.287.331,14.431-6.21-21.1-12.031-21.433,7.823" transform="translate(-97.045 -100.684)" fill="#c6a37d"/>
    <path id="Path_8" data-name="Path 8" d="M230.273,205.708c1.535,14.177-3.769,30.553,9.624,28.666s17.249-15.974,14.072-18.4-9.983,5.324-13.5-.668,13.567-14.685,7.711-16.758-8.644,7.944-9.63,2.6,15.808-13.53,10.874-16.6-20.69,6.993-19.156,21.169" transform="translate(-122.638 -98.031)" fill="#b6bbab"/>
    <path id="Path_9" data-name="Path 9" d="M279.64,171.863c3.07-13.924,9.07-13.167,12.514-13.506s16.549-.667,11.271,4.587-19.222,10.776-16.81,13.681,15.371-10.642,17.665-3.051-5.2,6.595-9.739,13.174-4.625,15.506,9.672,9.636,6.23,6.363-1.18,9.583-14.741,9.2-20.009-1.117-6.455-19.063-3.385-32.987" transform="translate(-148.108 -84.288)" fill="#a5ae9b"/>
    <path id="Path_10" data-name="Path 10" d="M158.124,133.112c5.824,0,3.1,2.412,5.287,6.268s9.694-3.369,9.884,2.611,1.154,5.793-5.236,6.727,2.73,8.662-6.39,10.217-1.459-8.909-5.757-9.283-11.678,4.738-11.8-2.767,10.278-4.583,10.9-6.141-2.71-7.633,3.115-7.633" transform="translate(-76.783 -70.925)" fill="#0f0e0a"/>
  </g>
</svg>
