<svg xmlns="http://www.w3.org/2000/svg" width="18.058" height="17.611" viewBox="0 0 18.058 17.611">
  <path id="github" d="M9.029.3a9.03,9.03,0,0,0-2.855,17.6c.451.085.617-.194.617-.434,0-.214-.008-.783-.011-1.535-2.512.545-3.041-1.211-3.041-1.211a2.393,2.393,0,0,0-1-1.321c-.818-.56.063-.549.063-.549a1.893,1.893,0,0,1,1.383.93,1.924,1.924,0,0,0,2.63.751,1.925,1.925,0,0,1,.572-1.208c-2.005-.226-4.113-1-4.113-4.462A3.483,3.483,0,0,1,4.2,6.432a3.21,3.21,0,0,1,.079-2.39s.756-.242,2.483.925a8.513,8.513,0,0,1,4.515,0c1.716-1.168,2.472-.925,2.472-.925a3.3,3.3,0,0,1,.09,2.39,3.5,3.5,0,0,1,.925,2.423c0,3.469-2.111,4.232-4.12,4.454a2.162,2.162,0,0,1,.609,1.67c0,1.208-.011,2.179-.011,2.472,0,.237.158.519.621.429A9.018,9.018,0,0,0,9.029.3" transform="translate(0 -0.297)" fill="currentColor"/>
</svg>
